<svg xmlns="http://www.w3.org/2000/svg" width="178" height="87" fill="none"><path fill="#E5E5E5" d="M0 0h178v87H0z"/><g clip-path="url(#a)"><path fill="#F9F9F9" d="M-65-21h1440v4767H-65z"/><path fill="#F3F3F3" d="m44.6526 92.722-6.4337-6.3937c-.4405-.4377-1.1548-.4377-1.5954 0-.4406.4377-.4405 1.1476 0 1.5853l6.4338 6.3936c2.2502 2.2362 2.2502 5.8748 0 8.1108-1.0794 1.073-2.5325 1.65-4.0845 1.629-1.5542-.023-3.0166-.638-4.1175-1.732l-8.4435-8.3905c-3.1298-3.1105-8.2154-3.1175-11.3365-.0159-3.1298 3.1104-3.1298 8.1714 0 11.2814l3.0274 3.009c-2.3642-.816-4.8745-1.242-7.4509-1.242-6.05332 0-11.74442 2.343-16.02476 6.597-8.83604 8.781-8.83604 23.069 0 31.85C-1.09262 149.657 4.59835 152 10.6518 152c6.0532 0 11.7443-2.343 16.0247-6.596 4.2803-4.254 6.6376-9.91 6.6376-15.925 0-6.016-2.3573-11.672-6.6376-15.925-.1006-.1-.2028-.198-.305-.296l-9.701-9.653c-2.25-2.236-2.25-5.8749 0-8.1112 2.2416-2.2275 5.8957-2.2203 8.146.0158l8.4435 8.3914c1.5182 1.508 3.5354 2.356 5.6799 2.387 2.1663.03 4.1983-.78 5.7126-2.285 3.13-3.11 3.13-8.1706.0001-11.281Zm-22.8683 19.755c-2.7271.23-5.3826.806-7.9131 1.709-.0531-.026-.1082-.051-.1667-.069-4.92363-1.575-10.08042-1.909-15.1098-1.003 3.47675-2.541 7.6606-3.914 12.0571-3.914 4.0137 0 7.8495 1.145 11.1325 3.277Zm-23.04149 13.269c-2.78609-.086-5.56568.199-8.28184.85.17134-1.195.45084-2.378.83651-3.534.01991-.005.03995-.011.05972-.017 3.96209-1.377 7.4525-1.903 11.06807-1.651-.02854.028-.05773.055-.086.083-1.33751 1.33-2.537654 2.759-3.59646 4.269Zm5.92853-6.368c-.00279-.001-.00544-.001-.0081-.002-4.122533-.588-7.96305-.291-12.22985.967.74573-1.471 1.6827-2.871 2.81158-4.16 4.81053-1.391 10.33494-1.648 15.30073-.585-2.07976 1.029-4.04939 2.293-5.87436 3.78Zm-14.40917 9.583c2.31177-.617 4.67729-.947 7.05568-.984-2.16924 3.739-3.52638 7.891-3.98027 12.238-2.14986-3.423-3.17482-7.35-3.07541-11.254Zm5.16621 14.021c.1286-7.526 3.13646-14.583 8.50626-19.919 5.41067-5.377 12.94016-8.371 20.58896-8.456.1883.174.3748.351.5575.532.7772.773 1.4826 1.597 2.1158 2.464-15.1853 1.174-27.335032 13.088-28.71978 28.155-.79072-.587-1.54441-1.234-2.25471-1.94-.27445-.272-.53842-.552-.79403-.836Zm34.59702-19.904c-6.827.886-12.8576 3.66-17.4992 8.065-4.83704 4.591-7.7889 10.627-8.57338 17.501-1.14666-.395-2.25536-.891-3.314301-1.485.753561-14.942 12.886881-26.84 27.938181-27.389.5822 1.058 1.0674 2.164 1.4487 3.308Zm-.576 14.317c-1.7172-3.745-4.1755-7.125-7.2055-9.915 1.5069-.643 3.0944-1.169 4.7522-1.567 1.5615 1.977 2.8551 4.153 3.8532 6.478-.2491 1.733-.7206 3.412-1.3999 5.004Zm1.532-9.673c-.4752-.788-.9848-1.554-1.5284-2.297.3849-.061.7733-.114 1.1646-.161.1708.806.2925 1.627.3638 2.458Zm-11.6795 9.727c1.9635 2.149 3.5947 4.59 4.8337 7.25-3.2666 2.866-7.3099 4.593-11.6359 4.976.6324-5.081 3.1165-9.556 6.8022-12.226Zm-9.0807 12.304c-1.38352-.028-2.74439-.192-4.06677-.486.66425-6.501 3.48617-12.154 7.85207-16.363 1.3178.88 2.5535 1.861 3.6983 2.931-4.1232 3.117-6.8618 8.205-7.4836 13.918Zm15.6115-6.723c-2.3231-4.666-5.7839-8.668-10.0879-11.66 1.3244-1.069 2.7624-2.019 4.3014-2.838 3.5768 3.092 6.3597 7.05 8.0563 11.471-.6548 1.068-1.4129 2.082-2.2698 3.027Z"/><g fill="#FFBD54"><path d="M48.4333 291.181c46.5897-26.899 59.5617-91.967 28.9159-145.048C46.6956 93.0395-16.1465 71.7308-62.7362 98.6294-109.321 125.525-122.284 190.6-91.6306 243.694c30.646 53.08 93.47861 74.383 140.0639 47.487ZM208.01 230.583l.004-.003c8.54-1.759 16.508-4.843 23.789-9.047 33.976-19.616 52.811-63.464 43.503-108.764-5.354-26.0784-19.188-48.9347-38.951-64.3539-20.685-16.1448-45.307-22.3157-69.338-17.377-24.034 4.9413-44.228 20.3272-56.869 43.3196C98.071 96.3218 94.376 122.78 99.7393 148.853c11.3067 55.006 59.8777 91.67 108.2707 81.73Z"/></g><path fill="#fff" stroke="#F3F3F3" d="M-64.5 18.5h1439v60h-1439z"/><path fill="#F9F8F8" d="M-65-21h1440v39H-65z"/><path fill="#FFBD54" d="M10.95 37.8814 0 32.8363l11.8544-5.4746c.3361-16.3779 16.1595-19.92829 22.7219-19.29272 6.5624.6363 25.6535 12.34532 17.961 36.26232-2.6212 8.1506-2.0024 29.239 28.5858 27.2914-2.2975 4.3299-13.0817 22.2894-48.1818 10.8645C23.2099 79.3196 9.34357 63.6387 10.95 37.8814Z"/><path fill="#78C0DE" d="M110.818 32.7034c.96-11.6009-5.053-22.1163-8.576-24.53874-3.2875-2.25955-3.2992 7.49534-6.2265 12.84574-4.3459-1.811-9.1609-2.8279-14.2352-2.8279-5.0648 0-9.8717 1.0125-14.2104 2.8177-2.9221-5.3534-2.9367-15.09509-6.2212-12.837-3.5198 2.4122-9.5211 12.921-8.5773 24.4993-3.6227 5.0816-5.7369 11.1669-5.7369 17.7133 0 17.7805 15.5568 30.9674 34.7451 30.9674 19.1894 0 34.7454-13.1869 34.7454-30.9674 0-6.5288-2.104-12.5989-5.707-17.6724Z"/><path fill="#000" d="M109.119 52.411c.898-15.9169 6.977-18.1173 7.775-27.8509C118 11.0817 127.285 1.28155 131.872.0747093 136.459-1.12921 130.608 12.5493 134.719 17.1919c8.6-2.9813 14.061-.4427 18.374 4.2232 4.316 4.6674-1.317 9.1244 7.13 7.9293 3.475-.4931 7.087-.377 10.11.393.286-.1892.595-.3507.931-.4668 2.378-.8233 5.052.6619 5.975 3.3217.348 1.0074.393 2.0382.188 2.9762.105.5136.149 1.0586.116 1.6379-.466 8.182-10.549 19.4513-16.813 20.2724-6.264.8226-12.915-.2594-13.085 12.2737-.225 16.6928-37.176 23.299-46.227 6.352 6.624-4.7916 7.016-11.5373 7.701-23.6935Z"/><path fill="#000" d="M136.872 22.1398c4.325.3821 7.761-1.9154 11.106-4.4913-1.345-.1658-2.831-.1761-4.498.0139-2.507-4.5308 4.754-14.6166.794-14.47049-3.569.12711-12.703 5.01806-16.914 13.88309 3.056 2.0536 5.488 5.2825 9.512 5.0648Z"/><path fill="#fff" d="M38.1417 34.4355c-.5165-.1549-1.0491-.1965-1.5787-.1206-1.5466.2207-2.8535 1.4333-3.2443 2.9996l-3.4693 12.9619-6.9182-11.4979c-.8679-1.3836-2.4743-2.1675-3.9997-1.9498-.5202.0745-1.0008.2586-1.4297.5494-.9709.599-1.64 1.5012-1.8862 2.5444-.2367.9921-.0585 2.0273.4843 2.8922l11.7025 19.6478c.084.1695.2148.4149.4427.6144.0796.0891.1717.1621.2754.2206 0 .0015 0 .0015.0007.0022l.1038.149.1439.1089c.0519.0394.111.0811.1782.1183l.0278.1943.4939.1651.1512.1125 1.1199.2419.3331.0628.1666-.0241c.2849.0146.496-.0154.618-.0322.1666-.0234.3843-.0548.6538-.1497l.2521-.0358.206-.1418 1.0052-.6457.206-.2747c.0599-.0665.1468-.1622.236-.2996.0701-.0818.13-.1724.1746-.271.0299-.0475.0606-.0964.0891-.1468.0058-.0095.0117-.0183.0168-.0278.0979-.1052.1761-.2272.2316-.3594.0993-.1863.1797-.4076.225-.6188l5.8479-22.1352c.2864-1.0074.1673-2.0514-.3353-2.9382-.5325-.9417-1.4392-1.6255-2.5247-1.9162ZM81.5787 34.2806c-9.318.1629-16.8199 8.1031-16.722 17.7192.2396 9.6876 7.8475 17.2019 17.3203 17.1055h.0102c4.986-.0877 9.0214-1.6613 12.3308-4.8106.8057-.7612 1.2455-1.7299 1.2704-2.8002.0336-1.3748-.6276-2.5795-1.269-3.2611-.6903-.7911-1.9023-1.2485-3.256-1.2251-1.3595.0241-2.6146.5333-3.4656 1.4012-1.0922.8197-2.9923 1.3668-4.8764 1.4004-.2659.0044-.5289-.0022-.7809-.0182-1.9674-.1337-4.2021-1.1192-5.311-2.3436l-.0899-.0906c-.5048-.4609-.9533-1.1148-1.3047-1.8891l18.5922-.3244c2.4217-.0424 4.2889-1.5473 4.5957-3.6812.0724-.2681.0855-.561.0797-.8985l-.0095-.4011c-.7189-9.364-7.9168-16.0433-17.1143-15.8826Zm7.64 12.7844-14.1768.2476c.9701-1.9191 3.1164-3.9668 6.6683-4.2268 3.6403.2564 6.2256 2.1448 7.5085 3.9792ZM138.074 49.6825c2.535.2644 4.897-1.6247 5.158-4.1253.264-2.546-1.616-4.834-4.194-5.1028l-.242-.0256.785-7.5289c.27-2.5876-1.545-4.8259-4.132-5.0962-2.622-.274-4.887 1.5392-5.157 4.126l-.787 7.5282-.485-.0504c-2.588-.2696-4.827 1.5451-5.097 4.1334-.265 2.5437 1.588 4.8295 4.133 5.0962l.485.0504-1.635 15.6642c-.463 4.4182 2.757 8.3894 7.177 8.8511 2.587.2703 4.825-1.5436 5.097-4.1326.227-2.1726-.979-4.0991-2.87-4.85l1.52-14.564.244.0263Z"/></g><defs><clipPath id="a"><path fill="#fff" d="M-65-21h1440v4767H-65z"/></clipPath></defs></svg>